<svg class="img-fluid" id="outputsvg" xmlns="http://www.w3.org/2000/svg" style="transform: matrix(0.60113, 0, 0, 0.60113, 0, 0); transform-origin: 50% 50%; cursor: move; transition: transform 200ms ease-in-out 0s;" width="950" height="201" viewBox="0 0 9500 2010"><g id="l7GxzTChIYWQ5bCHBkrMLMa" fill="rgb(0,0,0)" style="transform: none;"><g style="transform: none;"><path id="p16BbNesBg" d="M2188 1865 c-1 -1 -38 -6 -81 -9 -91 -7 -113 -11 -187 -38 -170 -61 -319 -204 -401 -384 -16 -35 -30 -72 -32 -81 -1 -10 -5 -22 -9 -28 -9 -16 -27 -111 -33 -180 -2 -22 -4 -41 -5 -42 -1 -4 -1 -192 0 -195 1 -2 3 -23 5 -48 3 -40 10 -87 20 -141 2 -11 6 -23 9 -27 3 -5 8 -24 11 -42 9 -53 60 -164 106 -232 105 -155 252 -254 433 -293 60 -13 301 -14 361 -1 106 23 247 99 325 176 84 82 157 210 174 303 3 12 5 22 6 22 1 0 4 15 6 33 l5 32 -168 0 -168 0 -19 -52 c-56 -159 -205 -258 -370 -245 -64 5 -106 12 -113 17 -2 2 -6 3 -10 4 -5 1 -26 10 -48 21 -102 50 -187 192 -210 350 -2 11 -4 20 -5 20 -4 0 -15 134 -14 180 0 47 11 187 15 193 2 3 16 69 24 112 0 3 17 39 38 82 68 140 169 202 332 201 75 0 130 -6 130 -13 0 -1 8 -3 18 -5 10 -2 41 -18 69 -36 61 -39 118 -121 144 -209 l18 -60 168 0 168 0 -4 23 c-3 12 -5 22 -6 22 -1 0 -3 10 -6 23 -10 53 -64 175 -108 240 -78 117 -203 219 -326 265 -55 20 -86 26 -170 33 -36 3 -70 7 -77 9 -6 2 -13 2 -15 0z"></path><path id="pqcC1eEhc" d="M3559 1866 c-2 -2 -38 -6 -79 -10 -83 -6 -128 -14 -144 -24 -6 -3 -16 -7 -23 -8 -39 -6 -135 -67 -189 -121 -54 -53 -138 -183 -118 -183 4 0 2 -6 -4 -12 -31 -38 -31 -268 0 -305 6 -7 8 -13 4 -13 -3 0 7 -26 23 -58 18 -36 53 -80 90 -115 l61 -56 -27 -15 c-37 -21 -62 -43 -99 -91 -28 -36 -53 -89 -43 -91 2 0 -2 -8 -10 -17 -16 -21 -19 -220 -3 -239 6 -7 11 -16 11 -21 2 -21 34 -83 61 -117 52 -65 200 -160 271 -174 13 -2 46 -9 73 -16 27 -6 79 -13 115 -16 l66 -5 0 131 0 130 -30 1 c-16 1 -34 1 -39 0 -18 -4 -111 22 -147 40 -50 25 -82 93 -86 179 -4 117 39 178 149 211 36 11 75 20 85 19 10 -1 29 -2 43 -1 l25 1 -2 105 c-1 58 -4 109 -7 114 -3 4 -17 6 -30 4 -43 -9 -163 34 -206 74 -93 83 -91 281 2 370 58 54 115 72 215 68 115 -5 107 -3 158 -47 41 -36 69 -89 79 -148 3 -14 5 -27 6 -30 0 -3 0 -119 0 -257 l-1 -253 153 0 153 0 -2 247 c-3 267 -7 337 -24 380 -35 87 -70 144 -123 201 -92 98 -189 147 -318 158 -40 3 -76 8 -79 10 -3 2 -8 2 -10 0z"></path><path id="p16QKOMwWF" d="M4805 1846 c-115 -28 -270 -126 -350 -221 -77 -91 -164 -247 -180 -325 -2 -8 -4 -15 -5 -15 -1 0 -3 -7 -5 -15 -11 -46 -16 -69 -20 -104 -3 -21 -8 -43 -11 -48 -7 -11 -7 -265 0 -276 3 -5 8 -32 11 -61 23 -204 168 -441 333 -545 59 -37 155 -85 178 -89 10 -1 24 -6 30 -9 34 -22 338 -32 428 -15 195 37 388 173 474 336 17 31 31 58 31 61 0 3 4 17 10 32 6 15 12 45 15 67 l5 41 -169 0 -168 0 -7 -33 c-24 -114 -171 -229 -311 -241 -17 -2 -35 -5 -40 -8 -8 -4 -30 -3 -36 1 -2 1 -21 4 -43 6 -57 5 -97 15 -112 27 -7 6 -13 8 -13 4 0 -3 -22 8 -49 25 -85 52 -142 128 -185 249 -15 41 -27 76 -27 78 1 1 1 3 0 5 -10 30 -14 90 -13 212 0 149 2 178 17 203 5 6 6 12 3 12 -8 0 36 115 65 170 47 91 173 189 264 205 87 16 119 16 180 5 87 -16 155 -50 215 -106 65 -61 120 -175 120 -250 l0 -34 -180 -2 -181 -3 -2 -128 -2 -127 338 0 337 0 0 440 0 440 -134 0 -133 0 -7 -37 c-3 -21 -6 -57 -6 -80 0 -24 -2 -43 -4 -43 -3 0 -29 25 -58 56 -54 58 -175 125 -248 139 -65 13 -303 13 -355 1z"></path><path id="pU0PVAFUW" d="M619 1738 c-13 -40 -24 -75 -25 -78 0 -3 -6 -18 -13 -34 -6 -16 -13 -36 -14 -45 -1 -9 -5 -20 -8 -26 -7 -10 -29 -77 -33 -98 -2 -7 -8 -25 -15 -41 -6 -16 -13 -36 -15 -45 -2 -9 -6 -23 -9 -31 -18 -42 -35 -100 -30 -100 3 0 1 -6 -4 -12 -8 -11 -99 -267 -108 -303 -1 -5 -5 -17 -8 -25 -7 -15 -57 -167 -61 -185 -2 -5 -6 -18 -10 -27 -4 -9 -9 -25 -11 -35 -2 -10 -4 -19 -5 -20 -2 -2 -3 -6 -5 -10 -1 -5 -6 -19 -12 -33 -15 -35 -100 -292 -123 -367 l-19 -63 178 0 178 0 12 43 c7 23 13 49 14 57 2 8 5 20 8 25 7 11 60 181 63 199 1 6 4 16 8 21 8 13 20 74 16 78 -2 2 2 10 8 18 10 12 72 207 78 241 1 7 5 18 8 24 4 6 9 21 12 35 3 13 12 43 21 67 8 24 17 53 19 65 3 12 5 23 7 25 1 1 2 5 4 10 1 4 4 14 7 22 9 23 40 123 43 140 2 8 8 27 13 41 6 15 9 29 6 32 -2 2 2 10 11 17 13 10 15 9 15 -8 0 -11 5 -33 12 -49 13 -33 12 -28 22 -73 5 -19 11 -39 14 -45 4 -5 7 -15 8 -21 2 -13 62 -212 71 -234 3 -8 7 -21 9 -28 2 -11 26 -90 79 -262 13 -41 36 -115 51 -165 15 -49 32 -96 38 -104 6 -8 10 -16 8 -18 -5 -5 8 -63 21 -93 12 -28 14 -36 16 -50 1 -11 333 -15 344 -4 3 4 1 16 -5 28 -7 11 -13 28 -15 37 -1 9 -8 29 -14 45 -7 16 -13 32 -14 37 -2 4 -3 8 -4 10 -2 1 -4 12 -6 23 -3 12 -10 34 -16 50 -7 16 -13 36 -15 45 -2 9 -9 29 -15 45 -7 16 -13 32 -14 37 -2 4 -3 8 -5 10 -1 1 -3 9 -5 17 -7 36 -199 596 -208 608 -5 6 -7 12 -4 12 5 0 -30 113 -50 160 -3 8 -7 18 -8 23 -2 4 -4 9 -5 12 -1 3 -3 9 -4 14 0 5 -32 104 -71 219 l-70 211 -161 1 -161 0 -24 -72z"></path><path id="p1FroL8eVq" d="M8626 1790 c-163 -38 -288 -100 -395 -197 -115 -103 -203 -251 -243 -405 -31 -120 -30 -301 2 -418 65 -238 203 -413 409 -518 114 -57 175 -76 297 -93 100 -14 214 -3 324 29 80 23 245 109 293 153 l42 38 -300 300 -300 301 299 299 c257 257 298 302 287 315 -30 36 -182 128 -257 155 -171 62 -311 75 -458 41z"></path><path id="p7PZe0Za9" d="M6837 1583 c-63 -109 -125 -216 -137 -238 -12 -22 -61 -107 -110 -190 -48 -82 -117 -204 -155 -270 -37 -66 -77 -136 -90 -155 -27 -44 -123 -209 -160 -275 -15 -27 -58 -102 -96 -166 -38 -64 -69 -120 -69 -123 0 -3 421 -6 935 -6 514 0 935 3 935 8 0 4 -20 40 -44 79 -25 39 -93 156 -152 260 -58 103 -128 224 -154 268 -26 44 -128 219 -225 390 -98 171 -206 357 -240 415 -34 58 -74 126 -89 153 -15 26 -28 47 -30 47 -2 0 -56 -89 -119 -197z"></path></g></g></svg>